<svg id="svg" version="1.1" xmlns="http://www.w3.org/2000/svg" xmlns:xlink="http://www.w3.org/1999/xlink" width="400" height="397.77777777777777" viewBox="0, 0, 400,397.77777777777777"><g id="svgg"><path id="path0" d="M311.595 150.187 C 311.250 150.440,310.656 151.251,310.274 151.990 C 309.524 153.440,309.498 153.328,311.503 157.275 C 312.218 158.683,312.164 159.199,311.404 158.209 C 310.816 157.443,310.803 157.453,311.054 158.477 C 311.271 159.362,311.191 159.522,310.583 159.425 C 310.180 159.360,309.537 159.469,309.154 159.668 C 308.707 159.899,308.458 159.880,308.458 159.616 C 308.458 159.389,308.144 159.201,307.761 159.197 C 306.785 159.187,305.431 157.644,305.108 156.172 C 304.752 154.550,303.493 153.234,302.297 153.234 C 301.771 153.234,301.240 153.072,301.118 152.873 C 300.760 152.295,299.352 152.852,299.091 153.675 C 298.857 154.411,296.526 154.428,194.981 154.428 C 79.835 154.428,90.251 154.192,89.199 156.827 C 88.841 157.726,88.804 157.738,88.781 156.971 C 88.747 155.827,86.865 156.164,86.295 157.415 C 85.600 158.940,83.703 157.944,83.911 156.164 C 84.031 155.135,83.919 154.826,83.427 154.826 C 83.029 154.826,82.784 154.486,82.780 153.930 C 82.775 153.260,82.686 153.174,82.424 153.588 C 82.152 154.017,81.934 153.883,81.451 152.991 L 80.828 151.841 80.812 152.856 C 80.803 153.414,80.638 154.041,80.444 154.249 C 79.631 155.124,78.528 162.883,78.185 170.149 C 77.831 177.640,77.496 177.303,85.629 177.647 C 88.991 177.790,116.114 177.922,145.902 177.942 C 197.153 177.975,200.149 178.016,201.663 178.693 C 205.002 180.189,205.968 182.988,205.400 189.531 C 205.186 192.006,204.915 198.576,204.799 204.133 C 204.469 219.934,206.348 218.882,178.430 218.896 L 158.850 218.905 157.775 219.830 C 156.391 221.021,156.435 220.290,156.017 249.154 C 155.133 310.268,155.401 321.949,157.716 323.272 C 159.996 324.575,205.149 324.021,216.434 322.551 C 255.475 317.467,292.321 292.639,309.943 259.541 C 310.945 257.659,312.348 255.134,313.060 253.930 C 317.097 247.107,321.931 231.674,323.738 219.843 C 327.360 196.119,325.282 176.504,317.421 160.199 C 316.893 159.104,316.344 157.403,316.201 156.418 C 315.632 152.501,313.104 149.082,311.595 150.187 M79.767 218.821 C 75.745 219.429,76.094 215.576,75.581 264.954 C 75.034 317.621,74.966 316.259,78.326 319.736 C 82.013 323.552,85.705 324.137,104.359 323.865 C 116.642 323.686,117.133 323.602,118.259 321.499 C 119.260 319.629,118.406 222.751,117.372 220.819 C 116.490 219.171,115.888 219.112,97.876 218.905 C 88.335 218.796,80.186 218.758,79.767 218.821 " stroke="none" fill="#20b5e2" fill-rule="evenodd"></path><path id="path1" d="M85.505 70.867 C 81.027 71.542,78.782 73.403,77.115 77.824 L 76.219 80.199 76.112 128.825 L 76.005 177.450 76.973 178.576 L 77.941 179.701 139.187 179.900 C 208.378 180.125,201.874 179.779,203.443 183.326 C 204.484 185.681,204.433 213.052,203.383 215.089 C 201.697 218.360,200.985 218.455,177.990 218.484 C 154.518 218.513,156.020 217.989,156.020 226.155 C 156.020 231.925,156.306 231.549,156.501 225.522 C 156.649 220.940,156.687 220.766,157.752 219.850 L 158.850 218.905 178.430 218.896 C 206.348 218.882,204.469 219.934,204.799 204.133 C 204.915 198.576,205.186 192.006,205.400 189.531 C 205.968 182.988,205.002 180.189,201.663 178.693 C 200.149 178.016,197.153 177.975,145.902 177.942 C 116.114 177.922,88.991 177.790,85.629 177.647 C 77.496 177.303,77.831 177.640,78.185 170.149 C 78.528 162.883,79.631 155.124,80.444 154.249 C 80.638 154.041,80.803 153.414,80.812 152.856 L 80.828 151.841 81.451 152.991 C 81.934 153.883,82.152 154.017,82.424 153.588 C 82.686 153.174,82.775 153.260,82.780 153.930 C 82.784 154.486,83.029 154.826,83.427 154.826 C 83.919 154.826,84.031 155.135,83.911 156.164 C 83.703 157.944,85.600 158.940,86.295 157.415 C 86.865 156.164,88.747 155.827,88.781 156.971 C 88.804 157.738,88.841 157.726,89.199 156.827 C 90.251 154.192,79.835 154.428,194.981 154.428 C 296.526 154.428,298.857 154.411,299.091 153.675 C 299.352 152.852,300.760 152.295,301.118 152.873 C 301.240 153.072,301.771 153.234,302.297 153.234 C 303.493 153.234,304.752 154.550,305.108 156.172 C 305.431 157.644,306.785 159.187,307.761 159.197 C 308.144 159.201,308.458 159.389,308.458 159.616 C 308.458 159.880,308.707 159.899,309.154 159.668 C 309.537 159.469,310.180 159.360,310.583 159.425 C 311.191 159.522,311.271 159.362,311.054 158.477 C 310.803 157.453,310.816 157.443,311.404 158.209 C 312.164 159.199,312.218 158.683,311.503 157.275 C 309.498 153.328,309.524 153.440,310.274 151.990 C 312.187 148.288,315.364 150.662,316.201 156.418 C 316.344 157.403,316.893 159.104,317.421 160.199 C 325.260 176.457,327.359 196.140,323.763 219.674 C 323.013 224.584,322.459 228.661,322.532 228.735 C 323.749 229.952,327.187 200.021,326.541 193.831 C 326.461 193.065,326.200 189.483,325.960 185.871 C 325.329 176.363,322.390 162.434,319.418 154.868 C 315.847 145.775,310.887 135.226,308.232 131.076 C 286.653 97.342,254.777 76.931,215.323 71.583 C 208.342 70.637,91.316 69.991,85.505 70.867 M81.075 218.590 C 80.812 218.757,88.263 218.896,97.632 218.899 C 119.203 218.907,117.778 218.369,117.861 226.541 C 117.899 230.336,117.983 231.039,118.229 229.652 C 119.148 224.487,118.384 219.653,116.537 218.951 C 115.395 218.517,81.728 218.174,81.075 218.590 M75.792 230.846 C 75.792 235.771,75.849 237.786,75.919 235.323 C 75.989 232.861,75.989 228.831,75.919 226.368 C 75.849 223.905,75.792 225.920,75.792 230.846 M321.421 231.869 C 321.275 232.453,321.232 233.007,321.326 233.100 C 321.420 233.194,321.616 232.794,321.763 232.210 C 321.909 231.627,321.952 231.073,321.858 230.979 C 321.764 230.885,321.568 231.286,321.421 231.869 M118.328 236.418 C 118.328 237.622,118.403 238.114,118.494 237.512 C 118.585 236.910,118.585 235.925,118.494 235.323 C 118.403 234.721,118.328 235.214,118.328 236.418 M118.365 243.980 C 118.365 246.935,118.428 248.144,118.504 246.667 C 118.581 245.189,118.581 242.771,118.504 241.294 C 118.428 239.816,118.365 241.025,118.365 243.980 " stroke="none" fill="#37dcc9" fill-rule="evenodd"></path><path id="path2" d="M0.000 199.005 L 0.000 398.010 200.000 398.010 L 400.000 398.010 400.000 199.005 L 400.000 0.000 200.000 0.000 L 0.000 0.000 0.000 199.005 M153.632 65.218 L 218.308 65.489 223.483 66.724 C 228.975 68.034,229.219 68.105,247.164 73.576 C 253.655 75.556,266.047 81.516,271.113 85.095 C 287.752 96.851,301.358 110.057,308.919 121.791 C 310.118 123.652,311.372 125.447,311.706 125.780 C 312.808 126.879,322.017 145.403,323.194 148.887 C 323.829 150.765,324.705 153.134,325.142 154.153 C 325.869 155.849,326.960 159.996,329.750 171.659 C 332.581 183.498,332.955 205.326,330.548 218.308 C 330.223 220.060,329.758 222.836,329.513 224.478 C 328.968 228.143,326.178 238.014,325.191 239.771 C 324.793 240.480,324.007 242.567,323.445 244.410 C 321.352 251.271,311.622 268.979,306.077 276.020 C 305.043 277.333,303.498 279.477,302.645 280.784 C 301.792 282.091,300.468 283.691,299.701 284.339 C 298.935 284.988,296.871 286.964,295.114 288.730 C 293.357 290.496,291.118 292.599,290.139 293.404 C 289.160 294.209,287.593 295.580,286.658 296.450 C 283.967 298.956,279.897 302.185,276.086 304.840 C 270.466 308.755,270.060 309.043,269.851 309.271 C 269.266 309.908,264.627 312.752,263.454 313.194 C 261.697 313.855,257.943 315.483,252.935 317.757 C 250.746 318.751,245.159 320.652,240.520 321.982 C 235.881 323.312,231.445 324.667,230.664 324.994 C 229.882 325.320,226.514 326.033,223.178 326.577 C 219.843 327.122,215.913 327.852,214.445 328.200 C 211.340 328.937,213.027 328.916,181.294 328.617 C 151.616 328.337,152.035 328.400,150.863 324.043 C 150.081 321.136,150.273 218.810,151.063 217.251 C 153.221 212.994,152.232 213.165,176.009 212.935 L 196.596 212.736 197.502 211.829 C 198.721 210.608,198.943 188.026,197.748 186.831 C 196.486 185.569,190.608 185.453,132.579 185.548 L 74.710 185.642 73.029 183.785 C 70.384 180.864,70.499 183.339,70.488 129.076 C 70.477 74.310,70.290 78.311,73.122 72.637 C 75.744 67.385,81.121 64.221,86.567 64.725 C 87.881 64.847,118.060 65.068,153.632 65.218 M120.042 213.695 C 121.299 214.266,121.893 214.884,122.614 216.373 L 123.551 218.308 123.627 271.693 C 123.710 329.598,123.841 326.301,121.392 327.739 C 120.047 328.529,119.519 328.553,105.871 328.441 C 93.916 328.343,91.335 328.424,89.103 328.970 C 83.053 330.448,74.653 325.959,71.706 319.672 L 70.647 317.413 70.535 268.858 C 70.407 213.284,70.280 215.205,74.188 213.504 C 76.386 212.547,117.895 212.720,120.042 213.695 " stroke="none" fill="#fbfbfb" fill-rule="evenodd"></path><path id="path3" d="M86.567 68.513 C 79.496 69.015,76.676 71.163,74.672 77.576 L 73.729 80.597 73.581 129.552 C 73.416 184.165,73.224 180.238,76.126 181.752 C 77.704 182.575,72.557 182.509,142.764 182.608 L 198.961 182.687 200.029 183.606 C 201.526 184.893,201.623 186.110,201.393 200.688 L 201.194 213.317 200.091 214.420 L 198.988 215.522 178.200 215.721 C 154.897 215.944,155.652 215.845,154.136 218.888 C 153.077 221.012,152.828 320.815,153.875 323.023 C 155.313 326.052,154.540 325.971,181.775 325.964 C 221.430 325.953,235.157 323.517,257.107 312.594 C 321.153 280.723,347.026 205.200,316.023 140.625 C 296.993 100.989,256.941 72.988,213.333 68.833 C 207.947 68.319,93.367 68.030,86.567 68.513 M215.323 71.583 C 251.477 76.484,281.079 93.826,302.081 122.409 C 309.335 132.283,310.757 134.745,315.632 145.871 C 321.981 160.364,325.063 172.304,325.956 185.871 C 326.194 189.483,326.463 193.154,326.554 194.030 C 327.097 199.255,325.614 214.777,323.722 223.682 C 313.487 271.855,275.618 309.960,227.463 320.545 C 214.619 323.368,203.284 324.114,176.318 323.913 C 157.069 323.770,157.363 323.805,156.165 321.488 C 155.352 319.916,155.707 222.416,156.532 220.605 C 157.477 218.530,157.687 218.509,177.990 218.484 C 200.985 218.455,201.697 218.360,203.383 215.089 C 204.433 213.052,204.484 185.681,203.443 183.326 C 201.874 179.779,208.378 180.125,139.187 179.900 L 77.941 179.701 76.973 178.576 L 76.005 177.450 76.112 128.825 L 76.219 80.199 77.115 77.824 C 78.782 73.403,81.027 71.542,85.505 70.867 C 91.316 69.991,208.342 70.637,215.323 71.583 M77.297 216.106 C 75.682 216.498,74.477 217.535,73.811 219.108 C 73.090 220.809,72.512 309.257,73.193 313.586 C 74.088 319.271,76.381 322.489,81.124 324.712 L 83.383 325.771 99.974 325.887 C 118.383 326.016,118.676 325.981,120.193 323.507 C 121.372 321.582,121.277 220.201,120.094 218.396 C 118.419 215.840,119.181 215.927,97.928 215.854 C 87.302 215.818,78.018 215.931,77.297 216.106 M116.537 218.951 C 118.557 219.719,118.509 218.638,118.663 267.264 C 118.742 292.219,118.787 314.437,118.763 316.637 C 118.686 323.786,118.954 323.652,104.359 323.865 C 85.705 324.137,82.013 323.552,78.326 319.736 C 75.010 316.304,75.109 318.266,75.506 263.989 L 75.821 220.913 76.905 219.829 C 77.673 219.061,78.543 218.681,79.890 218.526 C 82.859 218.182,115.512 218.561,116.537 218.951 " stroke="none" fill="#9ce5f4" fill-rule="evenodd"></path><path id="path4" d="M257.114 79.797 C 257.114 80.070,259.551 81.278,259.733 81.096 C 259.820 81.009,259.266 80.641,258.502 80.277 C 257.739 79.913,257.114 79.697,257.114 79.797 M290.133 102.786 C 291.109 103.826,291.959 104.677,292.023 104.677 C 292.322 104.677,292.006 104.319,290.249 102.670 L 288.358 100.896 290.133 102.786 M294.927 107.695 C 294.929 108.118,297.228 110.647,297.611 110.647 C 297.752 110.647,297.250 109.977,296.496 109.159 C 295.742 108.340,295.080 107.594,295.025 107.500 C 294.970 107.407,294.926 107.494,294.927 107.695 M310.688 128.259 C 311.937 130.709,313.331 132.971,313.493 132.809 C 313.672 132.630,310.484 126.965,310.204 126.965 C 310.108 126.965,310.326 127.547,310.688 128.259 M316.305 138.689 C 317.773 141.634,319.036 143.982,319.113 143.905 C 319.289 143.730,314.093 133.333,313.830 133.333 C 313.723 133.333,314.837 135.743,316.305 138.689 M72.140 139.900 C 72.145 140.776,72.226 141.087,72.321 140.592 C 72.416 140.097,72.413 139.381,72.313 139.000 C 72.214 138.620,72.136 139.025,72.140 139.900 M72.183 150.846 C 72.183 152.925,72.250 153.776,72.332 152.736 C 72.414 151.697,72.414 149.995,72.332 148.955 C 72.250 147.915,72.183 148.766,72.183 150.846 M324.185 157.214 C 324.307 157.761,324.765 159.821,325.204 161.791 C 326.166 166.116,326.388 166.879,326.616 166.651 C 326.866 166.401,325.330 159.712,324.587 157.811 C 324.244 156.935,324.064 156.667,324.185 157.214 M328.493 176.119 C 328.711 177.323,328.967 178.230,329.063 178.135 C 329.341 177.857,328.711 173.930,328.389 173.930 C 328.228 173.930,328.274 174.915,328.493 176.119 M72.098 176.732 C 72.030 179.287,73.220 182.046,74.826 183.056 C 75.796 183.666,75.793 183.647,74.687 182.311 C 73.222 180.539,72.761 179.399,72.429 176.716 L 72.157 174.527 72.098 176.732 M329.724 196.020 C 329.695 209.571,329.027 217.026,327.297 223.072 C 326.982 224.174,326.290 227.020,325.759 229.397 C 324.471 235.159,321.186 244.880,318.948 249.552 C 316.435 254.796,316.032 255.525,314.752 257.133 C 314.135 257.909,313.019 260.012,312.274 261.806 C 311.529 263.599,310.305 265.920,309.554 266.961 C 308.803 268.003,307.632 269.841,306.953 271.045 C 306.273 272.249,304.796 274.129,303.669 275.224 C 302.543 276.318,301.069 278.020,300.393 279.005 C 298.739 281.415,286.027 294.284,283.781 295.821 C 282.796 296.496,281.169 297.779,280.166 298.673 C 277.798 300.784,270.639 305.679,267.937 307.036 C 266.775 307.619,264.632 308.826,263.175 309.718 C 250.033 317.762,232.997 323.379,216.915 324.971 C 215.711 325.090,213.562 325.409,212.139 325.679 C 210.255 326.036,202.520 326.169,183.682 326.169 L 157.811 326.169 156.035 325.174 C 155.059 324.627,153.856 323.580,153.363 322.847 L 152.466 321.516 152.551 270.609 C 152.598 242.610,152.528 219.702,152.395 219.702 C 151.312 219.701,151.550 322.502,152.637 324.306 C 154.556 327.490,152.641 327.310,184.242 327.275 L 212.338 327.244 220.200 325.822 C 238.287 322.552,260.383 314.393,269.704 307.542 C 270.989 306.598,273.383 304.917,275.025 303.807 C 294.946 290.336,314.646 265.218,321.969 243.952 C 322.680 241.888,323.964 238.143,324.823 235.630 C 328.903 223.685,331.496 201.422,330.295 188.657 L 329.751 182.886 329.724 196.020 M83.696 183.777 C 84.963 183.856,86.933 183.856,88.074 183.776 C 89.215 183.695,88.179 183.631,85.771 183.631 C 83.363 183.632,82.429 183.698,83.696 183.777 M197.181 184.273 C 200.031 184.822,200.317 186.609,200.069 202.268 C 199.905 212.609,199.718 213.465,197.507 213.965 C 194.538 214.638,193.977 214.922,195.915 214.772 C 200.437 214.423,200.506 214.189,200.636 198.770 C 200.762 183.785,200.737 183.695,196.468 183.926 C 196.002 183.952,196.324 184.107,197.181 184.273 M109.652 214.503 L 107.264 214.792 110.249 214.890 C 111.891 214.944,114.335 215.019,115.680 215.057 C 122.124 215.235,121.890 213.006,121.725 272.637 L 121.592 320.995 120.597 322.786 C 118.638 326.313,118.341 326.368,101.443 326.368 C 80.542 326.368,76.636 325.258,73.820 318.520 C 72.452 315.245,72.384 313.413,72.262 276.501 C 72.194 256.188,72.027 239.457,71.891 239.320 C 71.291 238.720,71.636 313.755,72.245 316.338 C 73.309 320.852,75.792 323.830,80.371 326.084 L 82.968 327.363 100.688 327.355 C 120.863 327.345,120.401 327.414,121.826 324.194 C 122.554 322.547,122.695 223.223,121.975 218.677 C 121.432 215.250,116.707 213.649,109.652 214.503 M78.706 214.822 C 80.075 214.900,82.313 214.900,83.682 214.822 C 85.050 214.744,83.930 214.681,81.194 214.681 C 78.458 214.681,77.338 214.744,78.706 214.822 M155.237 215.224 C 153.792 215.954,152.237 218.143,152.555 219.001 C 152.661 219.288,152.925 219.041,153.170 218.424 C 153.773 216.911,156.234 215.409,158.810 214.982 L 160.995 214.620 158.806 214.575 C 157.432 214.546,156.104 214.788,155.237 215.224 M74.275 215.757 C 72.170 217.412,71.906 218.509,71.793 226.070 C 71.721 230.844,71.797 232.471,72.034 231.244 C 72.223 230.259,72.392 227.270,72.408 224.603 C 72.442 219.085,72.708 218.102,74.671 216.251 C 76.221 214.789,75.944 214.443,74.275 215.757 " stroke="none" fill="#dcecf4" fill-rule="evenodd"></path><path id="path5" d="M82.691 67.486 C 77.686 68.699,76.682 69.610,74.112 75.274 L 72.239 79.403 72.252 128.756 L 72.264 178.109 73.167 179.949 C 73.664 180.962,74.523 182.215,75.077 182.736 L 76.084 183.682 136.251 183.779 C 200.497 183.882,199.547 183.861,200.271 185.198 C 200.829 186.230,200.750 210.890,200.183 212.381 C 199.317 214.658,199.376 214.651,179.981 214.561 C 160.775 214.472,157.632 214.694,155.164 216.317 C 152.227 218.248,152.435 214.080,152.451 270.557 C 152.467 323.403,152.449 322.804,154.000 323.763 C 154.205 323.890,154.112 323.470,153.793 322.831 C 152.819 320.877,153.148 220.869,154.136 218.888 C 155.652 215.845,154.897 215.944,178.200 215.721 L 198.988 215.522 200.091 214.420 L 201.194 213.317 201.393 200.688 C 201.623 186.110,201.526 184.893,200.029 183.606 L 198.961 182.687 142.764 182.608 C 72.557 182.509,77.704 182.575,76.126 181.752 C 73.224 180.238,73.416 184.165,73.581 129.552 L 73.729 80.597 74.672 77.576 C 76.215 72.637,78.332 70.295,82.320 69.111 C 85.067 68.296,205.865 68.056,213.731 68.850 C 267.424 74.271,312.899 114.148,325.391 166.766 C 332.549 196.916,328.780 230.080,315.350 255.124 C 313.710 258.183,313.653 258.374,314.755 257.114 C 315.426 256.348,316.388 254.829,316.893 253.738 C 317.398 252.648,318.406 250.588,319.133 249.161 C 320.876 245.741,324.569 234.716,325.769 229.346 C 326.295 226.997,326.982 224.174,327.297 223.072 C 329.689 214.712,330.767 186.245,328.993 178.308 C 328.626 176.667,328.225 174.338,328.102 173.134 C 327.979 171.930,327.451 169.649,326.929 168.065 C 326.407 166.481,325.621 163.543,325.183 161.536 C 322.513 149.305,312.024 128.229,302.929 116.822 C 298.498 111.265,285.624 98.174,282.570 96.121 C 281.594 95.464,280.706 94.838,280.597 94.727 C 267.757 81.815,233.260 68.286,210.547 67.255 C 196.827 66.633,85.382 66.833,82.691 67.486 M81.215 214.839 C 75.591 214.966,74.442 215.462,72.993 218.385 C 72.181 220.023,71.750 306.416,72.521 313.035 C 73.274 319.506,78.058 325.595,82.367 325.568 C 82.707 325.566,82.055 325.131,80.918 324.602 C 76.387 322.492,74.076 319.197,73.193 313.586 C 72.380 308.420,73.087 220.702,73.956 218.931 C 75.505 215.774,74.382 215.920,97.061 215.920 C 119.293 215.920,118.410 215.826,120.094 218.396 C 120.753 219.401,120.808 222.615,120.995 270.629 C 121.104 298.768,121.324 320.358,121.482 318.607 C 121.969 313.237,121.872 223.721,121.377 221.259 C 120.382 216.306,119.321 215.179,115.491 215.001 C 111.647 214.824,87.036 214.707,81.215 214.839 M311.791 261.590 C 304.951 275.090,287.632 293.674,272.512 303.741 C 268.646 306.315,267.408 307.290,269.055 306.464 C 270.838 305.569,278.296 300.339,280.166 298.673 C 281.169 297.779,282.796 296.496,283.781 295.821 C 286.027 294.284,298.739 281.415,300.393 279.005 C 301.069 278.020,302.543 276.318,303.669 275.224 C 304.796 274.129,306.277 272.249,306.961 271.045 C 307.645 269.841,308.887 267.871,309.722 266.667 C 311.048 264.754,313.460 259.502,313.012 259.502 C 312.922 259.502,312.373 260.442,311.791 261.590 M256.318 313.035 C 253.582 314.435,251.522 315.589,251.741 315.599 C 252.209 315.621,260.720 311.348,261.274 310.813 C 261.905 310.203,261.481 310.393,256.318 313.035 M249.552 316.219 C 249.005 316.532,248.736 316.788,248.955 316.788 C 249.174 316.788,249.801 316.532,250.348 316.219 C 250.896 315.906,251.164 315.650,250.945 315.650 C 250.726 315.650,250.100 315.906,249.552 316.219 M242.587 318.706 C 239.741 319.676,234.726 321.172,231.443 322.029 C 225.143 323.674,226.264 323.777,233.044 322.176 C 237.349 321.160,243.883 319.032,246.766 317.706 C 249.425 316.484,248.351 316.741,242.587 318.706 M222.289 323.980 C 221.223 324.251,221.202 324.284,222.090 324.284 C 222.637 324.284,223.622 324.147,224.279 323.980 C 225.344 323.709,225.365 323.676,224.478 323.676 C 223.930 323.676,222.945 323.813,222.289 323.980 M208.662 325.858 C 209.267 325.949,210.163 325.947,210.652 325.852 C 211.142 325.758,210.647 325.683,209.552 325.686 C 208.458 325.689,208.057 325.766,208.662 325.858 M93.433 326.268 C 97.647 326.333,104.542 326.333,108.756 326.268 C 112.970 326.204,109.522 326.151,101.095 326.151 C 92.667 326.151,89.219 326.204,93.433 326.268 M171.443 326.268 C 178.065 326.330,188.900 326.330,195.522 326.268 C 202.144 326.207,196.726 326.157,183.483 326.157 C 170.239 326.157,164.821 326.207,171.443 326.268 " stroke="none" fill="#cef8fa" fill-rule="evenodd"></path><path id="path6" d="" stroke="none" fill="#fcfcec" fill-rule="evenodd"></path><path id="path7" d="M82.189 65.229 C 76.680 67.237,75.224 68.426,73.122 72.637 C 70.290 78.311,70.477 74.310,70.488 129.076 C 70.499 183.339,70.384 180.864,73.029 183.785 L 74.710 185.642 132.579 185.548 C 190.608 185.453,196.486 185.569,197.748 186.831 C 198.943 188.026,198.721 210.608,197.502 211.829 L 196.596 212.736 176.009 212.935 C 152.232 213.165,153.221 212.994,151.063 217.251 C 150.273 218.810,150.081 321.136,150.863 324.043 C 152.035 328.400,151.616 328.337,181.294 328.617 C 213.027 328.916,211.340 328.937,214.445 328.200 C 215.913 327.852,219.801 327.118,223.085 326.570 C 226.402 326.016,230.823 324.965,233.035 324.205 C 237.986 322.503,237.603 322.432,231.832 323.983 C 227.187 325.230,217.432 326.918,210.945 327.596 C 208.727 327.827,196.636 327.943,181.692 327.876 C 152.753 327.746,154.034 327.893,152.121 324.466 L 151.208 322.829 151.214 271.082 C 151.220 214.679,151.090 217.853,153.483 215.676 C 155.567 213.780,156.136 213.731,176.278 213.729 C 196.078 213.727,197.802 213.596,198.702 212.022 C 199.485 210.653,199.651 187.142,198.884 186.103 C 197.897 184.765,194.650 184.694,134.661 184.713 C 69.120 184.734,74.642 184.992,72.536 181.809 L 71.443 180.158 71.443 129.382 L 71.443 78.607 72.939 75.211 C 75.337 69.766,77.338 67.907,82.189 66.611 C 84.492 65.996,196.772 65.856,211.144 66.450 C 219.409 66.792,223.629 67.481,232.239 69.896 C 263.414 78.639,281.379 90.205,303.297 115.645 C 310.876 124.441,320.216 142.170,325.197 157.214 C 335.521 188.394,332.371 227.835,317.330 255.721 C 316.976 256.378,315.685 258.812,314.462 261.129 C 311.992 265.811,309.221 270.200,306.373 273.941 C 305.336 275.303,303.634 277.582,302.592 279.005 C 290.733 295.191,264.639 313.539,243.439 320.599 C 239.906 321.775,237.162 322.749,237.342 322.762 C 238.465 322.845,249.624 319.265,252.935 317.760 C 257.908 315.499,261.684 313.860,263.454 313.194 C 264.627 312.752,269.266 309.908,269.851 309.271 C 270.060 309.043,270.466 308.755,276.086 304.840 C 279.897 302.185,283.967 298.956,286.658 296.450 C 287.593 295.580,289.160 294.209,290.139 293.404 C 291.118 292.599,293.357 290.496,295.114 288.730 C 296.871 286.964,298.935 284.988,299.701 284.339 C 300.468 283.691,301.792 282.091,302.645 280.784 C 303.498 279.477,305.043 277.333,306.077 276.020 C 308.944 272.380,312.850 266.198,315.633 260.896 C 321.208 250.273,322.467 247.617,323.445 244.410 C 324.007 242.567,324.793 240.480,325.191 239.771 C 326.178 238.014,328.968 228.143,329.513 224.478 C 329.758 222.836,330.223 220.060,330.548 218.308 C 332.955 205.326,332.581 183.498,329.750 171.659 C 326.960 159.996,325.869 155.849,325.142 154.153 C 324.705 153.134,323.829 150.765,323.194 148.887 C 322.017 145.403,312.808 126.879,311.706 125.780 C 311.372 125.447,310.118 123.652,308.919 121.791 C 301.358 110.057,287.752 96.851,271.113 85.095 C 266.047 81.516,253.655 75.556,247.164 73.576 C 229.219 68.105,228.975 68.034,223.483 66.724 L 218.308 65.489 153.632 65.218 C 118.060 65.068,87.881 64.847,86.567 64.725 C 84.807 64.562,83.656 64.695,82.189 65.229 M74.188 213.504 C 70.280 215.205,70.407 213.284,70.535 268.858 L 70.647 317.413 71.706 319.672 C 74.653 325.959,83.053 330.448,89.103 328.970 C 91.335 328.424,93.916 328.343,105.871 328.441 C 119.519 328.553,120.047 328.529,121.392 327.739 C 123.841 326.301,123.710 329.598,123.627 271.693 L 123.551 218.308 122.614 216.373 C 120.903 212.840,121.744 212.952,96.915 212.960 C 79.750 212.965,75.174 213.075,74.188 213.504 M119.589 214.402 C 120.550 214.861,121.279 215.648,121.891 216.890 L 122.786 218.706 122.898 270.647 C 123.022 328.709,123.194 325.032,120.272 326.850 L 118.806 327.761 100.697 327.761 C 80.001 327.761,80.105 327.777,76.059 324.139 C 70.612 319.241,70.726 320.552,70.925 265.449 L 71.091 219.445 72.063 217.484 C 72.609 216.384,73.628 215.130,74.387 214.627 L 75.740 213.731 96.961 213.731 C 116.040 213.731,118.324 213.799,119.589 214.402 " stroke="none" fill="#ecfaf6" fill-rule="evenodd"></path><path id="path8" d="M81.990 66.639 C 77.314 67.940,75.303 69.844,72.939 75.211 L 71.443 78.607 71.443 129.382 L 71.443 180.158 72.536 181.809 C 74.642 184.992,69.120 184.734,134.661 184.713 C 194.650 184.694,197.897 184.765,198.884 186.103 C 199.651 187.142,199.485 210.653,198.702 212.022 C 197.802 213.596,196.078 213.727,176.278 213.729 C 156.136 213.731,155.567 213.780,153.483 215.676 C 151.090 217.853,151.220 214.679,151.214 271.082 L 151.208 322.829 152.121 324.466 C 154.058 327.935,152.358 327.763,184.478 327.750 C 205.060 327.741,213.169 327.610,214.328 327.267 C 215.916 326.797,215.914 326.796,213.733 327.031 C 206.676 327.790,156.143 327.305,154.787 326.466 C 151.589 324.486,151.846 328.768,151.796 276.617 C 151.748 226.775,151.893 219.496,152.977 217.417 C 154.425 214.637,153.515 214.748,176.517 214.527 C 199.347 214.308,199.007 214.348,199.684 211.836 C 200.074 210.390,200.085 187.568,199.697 186.181 C 199.080 183.976,202.335 184.095,136.699 183.881 C 67.930 183.656,74.342 183.996,72.791 180.489 C 71.618 177.838,71.799 80.580,72.983 77.413 C 75.127 71.676,76.896 69.493,80.597 68.017 L 82.985 67.065 141.692 66.954 C 208.408 66.829,215.436 66.991,224.080 68.851 C 257.355 76.012,280.480 89.930,302.165 115.850 C 328.122 146.876,337.752 197.781,324.823 235.630 C 323.964 238.143,322.680 241.888,321.969 243.952 C 314.479 265.701,295.377 289.835,274.030 304.518 C 270.057 307.251,267.527 309.187,268.657 308.631 C 276.614 304.714,296.433 287.412,302.592 279.005 C 303.634 277.582,305.336 275.303,306.373 273.941 C 309.221 270.200,311.992 265.811,314.462 261.129 C 315.685 258.812,316.976 256.378,317.330 255.721 C 332.371 227.835,335.521 188.394,325.197 157.214 C 320.216 142.170,310.876 124.441,303.297 115.645 C 281.379 90.205,263.414 78.639,232.239 69.896 C 223.629 67.481,219.409 66.792,211.144 66.450 C 197.519 65.887,84.098 66.053,81.990 66.639 M74.387 214.627 C 73.628 215.130,72.609 216.384,72.063 217.484 L 71.091 219.445 70.925 265.449 C 70.726 320.552,70.612 319.241,76.059 324.139 C 80.105 327.777,80.001 327.761,100.697 327.761 L 118.806 327.761 120.272 326.850 C 123.194 325.032,123.022 328.709,122.898 270.647 L 122.786 218.706 121.891 216.890 C 120.279 213.620,121.161 213.731,96.961 213.731 L 75.740 213.731 74.387 214.627 M118.726 214.971 C 120.340 215.800,121.779 217.442,121.975 218.677 C 122.695 223.223,122.554 322.547,121.826 324.194 C 120.401 327.414,120.863 327.345,100.688 327.355 L 82.968 327.363 80.371 326.084 C 75.581 323.727,73.007 320.429,72.045 315.423 C 71.117 310.592,71.670 219.395,72.637 217.753 C 74.494 214.601,73.494 214.754,93.860 214.493 C 113.888 214.236,117.429 214.304,118.726 214.971 M257.565 314.025 C 247.279 319.097,233.176 323.611,221.294 325.634 C 218.338 326.137,216.215 326.607,216.574 326.678 C 219.024 327.165,233.612 323.814,244.179 320.337 C 250.736 318.180,266.993 310.448,264.971 310.448 C 264.888 310.448,261.556 312.058,257.565 314.025 " stroke="none" fill="#e4f8f8" fill-rule="evenodd"></path></g></svg>